<?xml version="1.0" encoding="utf-8"?>
<!-- Generator: Adobe Illustrator 25.4.1, SVG Export Plug-In . SVG Version: 6.00 Build 0)  -->
<svg version="1.1" id="Layer_1" xmlns="http://www.w3.org/2000/svg" xmlns:xlink="http://www.w3.org/1999/xlink" x="0px" y="0px"
	 viewBox="0 0 135.6 64.2" style="enable-background:new 0 0 135.6 64.2;" xml:space="preserve">
<style type="text/css">
	.st0{fill:#FFFFFF;}
	.st1{fill:url(#SVGID_1_);}
	.st2{fill:url(#SVGID_00000095330598619493448740000012760375389027044013_);}
</style>
<path class="st0" d="M127.7,0H7.9C3.5,0,0,3.5,0,7.9v48.4c0,4.4,3.5,7.9,7.9,7.9h119.8c4.4,0,7.9-3.5,7.9-7.9V7.9
	C135.6,3.5,132.1,0,127.7,0z"/>
<linearGradient id="SVGID_1_" gradientUnits="userSpaceOnUse" x1="-855.0665" y1="15.931" x2="-855.0665" y2="14.942" gradientTransform="matrix(133.983 0 0 62.525 114632.1719 -933.1696)">
	<stop  offset="0" style="stop-color:#5A5A5A"/>
	<stop  offset="0.146" style="stop-color:#484848"/>
	<stop  offset="0.52" style="stop-color:#212121"/>
	<stop  offset="0.817" style="stop-color:#080808"/>
	<stop  offset="1" style="stop-color:#000000"/>
</linearGradient>
<path class="st1" d="M127.7,0.8H7.9C4,0.8,0.8,4,0.8,7.9v48.4c0,3.9,3.2,7.1,7.1,7.1l0,0h119.8c3.9,0,7.1-3.2,7.1-7.1l0,0V7.9
	C134.8,4,131.6,0.8,127.7,0.8z"/>
<g transform="translate(20.254 6.714)">
	<g>
		<circle class="st0" cx="24.4" cy="8.2" r="7.1"/>
		<path class="st0" d="M37.1,3.4H45v45h-7.9V3.4z"/>
		<path class="st0" d="M52,18.9h8v29.4h-8V18.9z"/>
		<path class="st0" d="M16.5,18.6c-2.5,0-4.9,0.6-7.1,1.8v-17H1.5v30.2c0,8.3,6.7,15,15,15s15-6.7,15-15S24.8,18.6,16.5,18.6
			L16.5,18.6z M16.5,40.8c-4,0-7.2-3.2-7.2-7.2s3.2-7.2,7.2-7.2s7.2,3.2,7.2,7.2S20.5,40.8,16.5,40.8L16.5,40.8z"/>
	</g>
	
		<linearGradient id="SVGID_00000072260275382547737510000005307957689268922506_" gradientUnits="userSpaceOnUse" x1="-967.8513" y1="61.3798" x2="-967.1447" y2="62.0874" gradientTransform="matrix(9.203881e-02 -14.1757 14.1757 9.203881e-02 -761.6409 -13712.4707)">
		<stop  offset="0" style="stop-color:#E52F08"/>
		<stop  offset="1" style="stop-color:#E94F96"/>
	</linearGradient>
	<circle style="fill:url(#SVGID_00000072260275382547737510000005307957689268922506_);" cx="24.4" cy="8.2" r="7.1"/>
	<path class="st0" d="M37.1,3.4H45v45h-7.9V3.4z"/>
	<path class="st0" d="M52,18.9h8v29.4h-8V18.9z"/>
	<path class="st0" d="M16.5,18.6c-2.5,0-4.9,0.6-7.1,1.8v-17H1.5v30.2c0,8.3,6.7,15,15,15s15-6.7,15-15S24.8,18.6,16.5,18.6
		L16.5,18.6z M16.5,40.8c-4,0-7.2-3.2-7.2-7.2s3.2-7.2,7.2-7.2s7.2,3.2,7.2,7.2S20.5,40.8,16.5,40.8L16.5,40.8z"/>
</g>
<g transform="translate(-.003 -.003)">
	<path class="st0" d="M106.3,55h10.2l-12.3-15.8l11.1-13.6H106L95.2,39.3V10.1h-7.9v45h7.9V39.4L106.3,55z"/>
</g>
</svg>
